<?xml version="1.0" encoding="UTF-8"?>
<!DOCTYPE svg PUBLIC "-//W3C//DTD SVG 1.1//EN" "http://www.w3.org/Graphics/SVG/1.1/DTD/svg11.dtd">
<svg xmlns="http://www.w3.org/2000/svg" version="1.1" width="199px" height="126px" style="shape-rendering:geometricPrecision; text-rendering:geometricPrecision; image-rendering:optimizeQuality; fill-rule:evenodd; clip-rule:evenodd" xmlns:xlink="http://www.w3.org/1999/xlink">
<g><path style="opacity:1" fill="#f5f4f3" d="M -0.5,-0.5 C 65.8333,-0.5 132.167,-0.5 198.5,-0.5C 198.5,41.5 198.5,83.5 198.5,125.5C 132.167,125.5 65.8333,125.5 -0.5,125.5C -0.5,83.5 -0.5,41.5 -0.5,-0.5 Z"/></g>
<g><path style="opacity:1" fill="#0c0c0c" d="M 188.5,12.5 C 185.933,12.7215 183.599,13.3882 181.5,14.5C 179.161,25.9037 176.661,37.237 174,48.5C 173.667,49.1667 173.333,49.8333 173,50.5C 172.751,49.376 172.251,48.376 171.5,47.5C 170.529,50.1211 169.196,52.4544 167.5,54.5C 167.085,50.7309 166.752,46.7309 166.5,42.5C 167.632,34.1767 168.632,25.8433 169.5,17.5C 162.272,16.4082 155.105,16.7415 148,18.5C 147.179,21.5541 147.345,24.5541 148.5,27.5C 152.108,26.4068 155.775,26.2401 159.5,27C 160.451,27.7175 160.617,28.5509 160,29.5C 158.509,31.0037 156.676,31.8371 154.5,32C 155.546,33.5385 156.879,33.7052 158.5,32.5C 159.938,32.7189 161.271,33.2189 162.5,34C 157.167,35 151.833,36 146.5,37C 145.629,41.4484 144.796,45.9484 144,50.5C 142.666,54.6732 139.832,56.6732 135.5,56.5C 135.277,54.6583 134.943,52.825 134.5,51C 135.797,42.529 136.797,34.029 137.5,25.5C 138.468,23.3926 138.802,21.0593 138.5,18.5C 137.209,18.2627 136.209,18.596 135.5,19.5C 131.176,18.1963 130.51,15.863 133.5,12.5C 134.665,11.4164 135.998,10.5831 137.5,10C 152.285,9.02177 166.952,7.18843 181.5,4.5C 185.504,4.00591 188.504,5.50591 190.5,9C 190.192,10.4595 189.525,11.6261 188.5,12.5 Z"/></g>
<g><path style="opacity:1" fill="#0d0d0d" d="M 118.5,55.5 C 118.424,52.0272 117.758,48.6939 116.5,45.5C 117.276,34.0676 118.776,22.7343 121,11.5C 124.125,10.2126 127.291,10.2126 130.5,11.5C 127.498,24.0105 125.332,36.6771 124,49.5C 122.593,51.8611 121.093,54.1945 119.5,56.5C 118.893,56.3764 118.56,56.0431 118.5,55.5 Z"/></g>
<g><path style="opacity:1" fill="#070707" d="M 44.5,12.5 C 48.6049,12.2338 52.6049,12.7338 56.5,14C 59.2914,15.7886 62.2914,17.1219 65.5,18C 69.2594,21.7434 70.4261,26.2434 69,31.5C 67.1917,38.6155 63.6917,44.7822 58.5,50C 55.964,50.3392 53.464,50.8392 51,51.5C 49.5272,51.0969 48.1939,50.4303 47,49.5C 46.6964,47.5595 45.8631,45.8928 44.5,44.5C 45.7485,41.5063 45.7485,38.5063 44.5,35.5C 39.9175,37.6511 37.5841,41.3177 37.5,46.5C 38.3188,50.4592 39.8188,54.1259 42,57.5C 49.4058,62.698 56.4058,68.3646 63,74.5C 61.6235,77.7666 62.2901,81.1 65,84.5C 65.6869,82.0797 65.1869,79.913 63.5,78C 63.8333,77.8333 64.1667,77.6667 64.5,77.5C 68.754,82.2743 69.5873,87.6076 67,93.5C 55.6345,116.897 38.4678,122.063 15.5,109C 9.5524,104.099 6.88574,97.7655 7.5,90C 7.90625,84.8282 9.73958,80.3282 13,76.5C 15.4607,77.2181 17.9607,77.8847 20.5,78.5C 21.3184,81.1071 21.8184,83.7737 22,86.5C 22.4935,84.8659 22.6602,83.1992 22.5,81.5C 24.1238,81.6399 25.2904,80.9733 26,79.5C 28.0926,82.0439 29.0926,85.0439 29,88.5C 29.7091,91.6196 31.5424,93.6196 34.5,94.5C 41.0984,94.862 46.4317,92.5286 50.5,87.5C 43.7175,81.9346 36.3842,77.1012 28.5,73C 14.0547,59.6702 12.5547,44.8369 24,28.5C 29.5864,21.3956 36.4197,16.0623 44.5,12.5 Z"/></g>
<g><path style="opacity:1" fill="#575757" d="M 188.5,12.5 C 186.562,14.1628 184.228,14.8294 181.5,14.5C 183.599,13.3882 185.933,12.7215 188.5,12.5 Z"/></g>
<g><path style="opacity:1" fill="#0b0b0b" d="M 103.5,29.5 C 104.778,29.2178 105.778,28.5511 106.5,27.5C 106.5,28.1667 106.833,28.5 107.5,28.5C 107.232,30.099 107.566,31.4324 108.5,32.5C 110.146,42.3773 107.813,51.2106 101.5,59C 98.7431,59.782 96.2431,59.282 94,57.5C 92.2204,53.0052 91.0537,48.3385 90.5,43.5C 88.5497,49.0234 86.2164,54.3567 83.5,59.5C 81.5875,62.4761 79.2542,62.9761 76.5,61C 74.9617,59.0679 73.795,56.9012 73,54.5C 72.362,42.1445 72.6953,29.8112 74,17.5C 75.3561,16.6198 76.8561,16.2865 78.5,16.5C 78.3309,21.0407 78.9975,21.374 80.5,17.5C 80.8333,19 81.1667,20.5 81.5,22C 80.5008,29.4839 80.3342,36.9839 81,44.5C 84.4765,35.9143 87.6432,27.2476 90.5,18.5C 93.2062,18.5751 95.8728,18.9084 98.5,19.5C 98.5659,27.5242 99.0659,35.5242 100,43.5C 101.484,38.9158 102.65,34.2492 103.5,29.5 Z"/></g>
<g><path style="opacity:1" fill="#282828" d="M 113.5,20.5 C 112.833,20.5 112.167,20.5 111.5,20.5C 112.695,16.7139 113.362,16.7139 113.5,20.5 Z"/></g>
<g><path style="opacity:1" fill="#5b5b5b" d="M 111.5,20.5 C 112.167,20.5 112.833,20.5 113.5,20.5C 113.468,22.5666 112.468,23.8999 110.5,24.5C 108.315,23.6867 106.648,22.1867 105.5,20C 106.98,20.0577 107.813,18.8911 108,16.5C 108.333,17.5 108.667,18.5 109,19.5C 109.654,18.3044 110.154,18.3044 110.5,19.5C 109.292,23.9493 109.625,24.2826 111.5,20.5 Z"/></g>
<g><path style="opacity:1" fill="#6e6e6e" d="M 135.5,19.5 C 136.209,18.596 137.209,18.2627 138.5,18.5C 138.802,21.0593 138.468,23.3926 137.5,25.5C 137.975,22.9179 137.308,20.9179 135.5,19.5 Z"/></g>
<g><path style="opacity:1" fill="#6d6d6d" d="M 106.5,27.5 C 105.778,28.5511 104.778,29.2178 103.5,29.5C 103.892,27.8211 104.392,26.1545 105,24.5C 106.039,25.2438 106.539,26.2438 106.5,27.5 Z"/></g>
<g><path style="opacity:1" fill="#5b5b5b" d="M 108.5,32.5 C 107.566,31.4324 107.232,30.099 107.5,28.5C 107.694,26.0882 109.027,25.0882 111.5,25.5C 111.752,28.3198 111.252,30.9865 110,33.5C 109.667,32.5 109.333,31.5 109,30.5C 108.536,31.0944 108.369,31.7611 108.5,32.5 Z"/></g>
<g><path style="opacity:1" fill="#b2b2b2" d="M 116.5,45.5 C 117.758,48.6939 118.424,52.0272 118.5,55.5C 115.516,52.5995 114.849,49.2662 116.5,45.5 Z"/></g>
<g><path style="opacity:1" fill="#a1a1a1" d="M 35.5,48.5 C 37.0986,49.7985 37.5986,51.4652 37,53.5C 35.7308,52.0953 35.2308,50.4286 35.5,48.5 Z"/></g>
<g><path style="opacity:1" fill="#f97923" d="M 172.5,94.5 C 173.045,96.0415 174.711,96.8749 177.5,97C 175.122,97.5112 172.788,98.1779 170.5,99C 173.343,98.743 176.01,98.9096 178.5,99.5C 174.512,100.495 170.512,101.495 166.5,102.5C 167,102.833 167.5,103.167 168,103.5C 170.795,102.422 173.629,101.922 176.5,102C 174.072,103.443 171.405,104.276 168.5,104.5C 165.898,104.533 163.898,103.533 162.5,101.5C 162.5,100.167 162.5,98.8333 162.5,97.5C 161.5,97.5 160.5,97.5 159.5,97.5C 160.103,84.985 161.936,72.6517 165,60.5C 165.833,59.6667 166.667,58.8333 167.5,58C 174.858,56.3271 182.192,56.3271 189.5,58C 188.833,59.3333 188.167,60.6667 187.5,62C 180.497,62.4966 180.163,63.1632 186.5,64C 186.167,64.3333 185.833,64.6667 185.5,65C 181.384,65.3255 177.384,66.1588 173.5,67.5C 172.607,70.0841 172.274,72.7508 172.5,75.5C 175.572,75.1826 178.572,75.5159 181.5,76.5C 180.624,77.2508 179.624,77.7508 178.5,78C 182.5,79 182.5,80 178.5,81C 179.5,81.3333 180.5,81.6667 181.5,82C 177.732,84.0556 173.732,85.2223 169.5,85.5C 169.33,87.8484 168.997,90.1817 168.5,92.5C 168.833,93.5 169.167,94.5 169.5,95.5C 170.417,94.8728 171.417,94.5394 172.5,94.5 Z"/></g>
<g><path style="opacity:1" fill="#f97820" d="M 101.5,110.5 C 103.104,105.323 102.438,104.656 99.5,108.5C 99.1976,100.319 100.198,92.3187 102.5,84.5C 104.396,84.9198 106.229,84.9198 108,84.5C 108.483,83.552 108.649,82.552 108.5,81.5C 109.208,79.6221 110.374,77.9555 112,76.5C 111.947,78.9359 112.113,81.2692 112.5,83.5C 117.366,81.4359 120.032,77.7692 120.5,72.5C 115.36,72.1804 110.36,72.8471 105.5,74.5C 104.833,74.3333 104.167,74.1667 103.5,74C 104.672,73.5814 105.672,72.9147 106.5,72C 104.945,70.3542 103.279,70.0209 101.5,71C 100.748,70.3292 100.414,69.4959 100.5,68.5C 102.082,66.0303 104.415,64.5303 107.5,64C 114.353,63.0394 121.02,63.7061 127.5,66C 130.992,76.1369 128.325,84.4702 119.5,91C 121.842,96.1787 125.842,98.6787 131.5,98.5C 131.742,108.581 127.409,111.081 118.5,106C 114.897,102.62 111.897,98.7865 109.5,94.5C 108.676,97.7848 108.176,101.118 108,104.5C 107.167,105.333 106.333,106.167 105.5,107C 106.931,109.538 106.264,111.372 103.5,112.5C 102.287,112.253 101.62,111.586 101.5,110.5 Z"/></g>
<g><path style="opacity:1" fill="#f97820" d="M 154.5,54.5 C 155.884,53.1991 157.384,53.1991 159,54.5C 159.383,57.4726 158.883,60.306 157.5,63C 157.833,63.1667 158.167,63.3333 158.5,63.5C 159.35,61.0962 160.35,58.7628 161.5,56.5C 161.833,57.1667 162.167,57.8333 162.5,58.5C 158.777,73.5412 154.444,88.7079 149.5,104C 146.165,106.291 143.332,105.791 141,102.5C 137.891,90.3492 136.058,78.0159 135.5,65.5C 139.085,65.269 142.252,66.269 145,68.5C 145.774,72.147 146.441,75.8136 147,79.5C 148.609,75.2209 150.443,71.0542 152.5,67C 151.978,66.4387 151.645,65.772 151.5,65C 152.087,61.2694 153.42,57.936 155.5,55C 155.272,54.6012 154.938,54.4346 154.5,54.5 Z"/></g>
<g><path style="opacity:1" fill="#f97923" d="M 100.5,68.5 C 99.7611,68.369 99.0944,68.5357 98.5,69C 99.3366,70.0113 99.67,71.1779 99.5,72.5C 98.5,72.5 97.5,72.5 96.5,72.5C 95.325,72.281 94.325,72.6143 93.5,73.5C 94.6016,74.1757 95.6016,74.8423 96.5,75.5C 92.8632,76.1654 89.1965,76.8321 85.5,77.5C 84.2054,80.0119 83.5387,82.6786 83.5,85.5C 86.5719,85.1826 89.5719,85.5159 92.5,86.5C 91.8333,87.1667 91.1667,87.8333 90.5,88.5C 90.8457,89.6956 91.3457,89.6956 92,88.5C 92.4561,89.7441 91.9561,90.5774 90.5,91C 92.8912,91.6914 92.8912,92.6914 90.5,94C 87.204,94.4574 84.0373,95.2907 81,96.5C 80.4978,99.5131 79.9978,102.513 79.5,105.5C 81.5,105.167 83.5,104.833 85.5,104.5C 85.9382,104.435 86.2716,104.601 86.5,105C 85.0267,105.71 84.3601,106.876 84.5,108.5C 83.448,108.351 82.448,108.517 81.5,109C 82.5981,109.77 82.5981,110.603 81.5,111.5C 78.7266,110.064 77.2266,111.064 77,114.5C 74.1084,113.158 72.7751,110.825 73,107.5C 72.6667,108.5 72.3333,109.5 72,110.5C 71.6667,110.167 71.3333,109.833 71,109.5C 71.0273,95.6405 73.1939,82.1405 77.5,69C 85.3002,67.4433 92.9668,67.2766 100.5,68.5 Z"/></g>
<g><path style="opacity:1" fill="#f9b689" d="M 96.5,72.5 C 97.625,73.6522 97.625,74.6522 96.5,75.5C 95.6016,74.8423 94.6016,74.1757 93.5,73.5C 94.325,72.6143 95.325,72.281 96.5,72.5 Z"/></g>
<g><path style="opacity:1" fill="#9e9e9e" d="M 53.5,73.5 C 55.4959,72.3122 56.3293,72.9789 56,75.5C 55.2917,74.6195 54.4584,73.9528 53.5,73.5 Z"/></g>
<g><path style="opacity:1" fill="#919191" d="M 47.5,77.5 C 47.56,76.9569 47.8933,76.6236 48.5,76.5C 52.0182,77.8232 54.0182,79.9898 54.5,83C 51.0583,82.6088 48.725,80.7755 47.5,77.5 Z"/></g>
<g><path style="opacity:1" fill="#fa9652" d="M 108.5,81.5 C 108.649,82.552 108.483,83.552 108,84.5C 106.229,84.9198 104.396,84.9198 102.5,84.5C 102.831,81.1344 103.998,78.1344 106,75.5C 107.122,77.4205 107.956,79.4205 108.5,81.5 Z"/></g>
<g><path style="opacity:1" fill="#dbdbdb" d="M 62.5,85.5 C 65.0023,88.6047 64.3356,91.2713 60.5,93.5C 60.1667,93.1667 59.8333,92.8333 59.5,92.5C 61.0198,90.3379 62.0198,88.0046 62.5,85.5 Z"/></g>
<g><path style="opacity:1" fill="#fab180" d="M 172.5,94.5 C 172.917,93.8761 173.584,93.5427 174.5,93.5C 175.068,95.0421 176.735,95.8755 179.5,96C 178.366,97.016 178.699,97.6827 180.5,98C 179.956,98.7172 179.289,99.2172 178.5,99.5C 176.01,98.9096 173.343,98.743 170.5,99C 172.788,98.1779 175.122,97.5112 177.5,97C 174.711,96.8749 173.045,96.0415 172.5,94.5 Z"/></g>
<g><path style="opacity:1" fill="#f9b383" d="M 159.5,97.5 C 160.5,97.5 161.5,97.5 162.5,97.5C 162.5,98.8333 162.5,100.167 162.5,101.5C 160.738,100.738 159.738,99.4044 159.5,97.5 Z"/></g>
<g><path style="opacity:1" fill="#faa56c" d="M 85.5,104.5 C 85.56,103.957 85.8933,103.624 86.5,103.5C 87.8928,104.863 89.5595,105.696 91.5,106C 90.3595,106.741 90.3595,107.575 91.5,108.5C 88.2512,109.812 84.9179,110.812 81.5,111.5C 82.5981,110.603 82.5981,109.77 81.5,109C 82.448,108.517 83.448,108.351 84.5,108.5C 84.3601,106.876 85.0267,105.71 86.5,105C 86.2716,104.601 85.9382,104.435 85.5,104.5 Z"/></g>
<g><path style="opacity:1" fill="#f9c19b" d="M 101.5,110.5 C 100.5,110.167 99.8333,109.5 99.5,108.5C 102.438,104.656 103.104,105.323 101.5,110.5 Z"/></g>
<g><path style="opacity:1" fill="#f98b41" d="M 85.5,111.5 C 86.552,111.351 87.552,111.517 88.5,112C 85.8189,114.07 82.8189,114.736 79.5,114C 81.7226,113.434 83.7226,112.6 85.5,111.5 Z"/></g>
</svg>
