<?xml version="1.0" standalone="no"?>
<!DOCTYPE svg PUBLIC "-//W3C//DTD SVG 20010904//EN"
 "http://www.w3.org/TR/2001/REC-SVG-20010904/DTD/svg10.dtd">
<svg version="1.0" xmlns="http://www.w3.org/2000/svg"
 width="216.000000pt" height="152.000000pt" viewBox="0 0 216.000000 152.000000"
 preserveAspectRatio="xMidYMid meet">

<g transform="translate(0.000000,152.000000) scale(0.100000,-0.100000)"
fill="#000000" stroke="none">
<path d="M1820 1299 c-47 -11 -103 -21 -125 -23 -22 -2 -78 -7 -125 -11 -120
-10 -154 -20 -170 -51 -13 -23 -13 -27 5 -40 10 -8 27 -14 37 -14 14 0 16 -6
13 -27 -14 -84 -35 -313 -29 -327 9 -24 44 -19 70 11 15 18 25 45 29 82 3 31
7 63 8 71 2 15 34 24 122 35 40 6 46 9 31 17 -10 5 -26 8 -37 5 -10 -3 -22 -1
-25 4 -3 5 4 9 14 9 24 0 46 25 36 41 -4 8 -25 10 -65 5 l-59 -6 0 33 c0 17 4
38 9 46 11 18 94 29 165 23 l52 -4 -17 -107 c-20 -125 -25 -193 -16 -208 4 -6
4 -18 1 -26 -12 -32 16 -25 32 8 20 42 29 46 19 8 -5 -22 -4 -25 5 -16 7 6 16
33 21 60 5 26 13 57 18 68 5 11 17 69 27 128 9 60 22 110 28 112 6 2 23 6 37
9 15 3 34 17 42 30 16 23 15 25 -21 50 -21 14 -40 26 -43 25 -2 0 -42 -9 -89
-20z"/>
<path d="M1265 1133 c-21 -140 -29 -283 -15 -283 6 0 10 -14 10 -31 0 -24 3
-30 16 -25 9 3 18 6 20 6 2 0 4 8 4 18 0 10 5 23 10 28 6 6 13 35 16 65 4 41
35 249 47 323 1 5 -19 10 -44 13 l-45 4 -19 -118z"/>
<path d="M475 1206 c-27 -13 -76 -49 -107 -80 -75 -74 -114 -156 -124 -258 -6
-72 -5 -80 20 -123 45 -76 82 -110 184 -171 104 -62 132 -82 132 -95 0 -19
-78 -58 -127 -64 -51 -7 -53 -6 -73 27 -11 18 -20 47 -20 64 0 17 -7 37 -15
44 -10 9 -15 9 -15 1 0 -6 -7 -11 -16 -11 -12 0 -15 -7 -12 -25 3 -14 1 -25
-3 -25 -5 0 -9 18 -9 40 0 42 -4 45 -70 52 -39 5 -65 -57 -63 -148 1 -76 15
-115 55 -150 54 -50 160 -84 260 -84 124 0 256 122 282 262 7 40 -11 100 -35
113 -11 6 -12 5 -1 -6 6 -7 12 -24 12 -38 0 -30 -13 -18 -28 26 -8 24 -8 33 1
37 15 6 -70 87 -151 145 -103 73 -130 171 -65 235 27 27 55 35 49 14 -12 -37
-16 -99 -6 -93 5 3 10 -3 10 -14 0 -28 30 -41 76 -34 48 7 56 14 96 72 39 58
58 112 58 165 -1 52 -19 73 -97 114 -75 39 -127 41 -198 8z m-26 -381 c0 -5
-4 -3 -9 5 -5 8 -9 22 -9 30 0 16 17 -16 18 -35z m186 -206 c11 -17 -1 -21
-15 -4 -8 9 -8 15 -2 15 6 0 14 -5 17 -11z m-32 -61 c17 -13 17 -14 -9 -13
-18 0 -29 7 -35 23 -7 19 -6 21 9 13 9 -5 25 -16 35 -23z m117 -82 c0 -18 -37
-63 -45 -55 -8 9 26 79 37 73 4 -3 8 -11 8 -18z"/>
<path d="M815 1179 c-15 -23 -18 -327 -5 -374 16 -58 48 -83 80 -63 21 13 63
91 75 141 9 33 25 26 25 -12 0 -92 72 -144 118 -86 56 70 73 220 33 290 -13
24 -20 31 -17 18 2 -13 1 -23 -4 -23 -4 0 -11 -17 -14 -37 -4 -21 -12 -56 -19
-78 l-11 -40 -7 60 c-4 33 -7 88 -8 122 l-1 62 -35 7 c-20 3 -37 5 -39 3 -2
-2 -25 -64 -51 -136 -26 -73 -50 -133 -53 -133 -3 0 -2 63 2 140 5 91 4 140
-3 140 -5 0 -12 -8 -14 -17 -4 -14 -5 -12 -6 5 -1 23 -34 32 -46 11z"/>
<path d="M1151 1177 c-1 -11 -6 -15 -12 -11 -7 4 -10 1 -7 -7 3 -8 10 -13 16
-12 6 2 9 -3 6 -11 -3 -8 -1 -17 4 -20 5 -3 12 7 14 24 2 16 1 27 -3 24 -4 -2
-10 4 -12 13 -4 17 -5 17 -6 0z"/>
<path d="M1195 1170 c2 -27 15 -38 15 -12 0 11 -4 23 -8 26 -5 3 -8 -4 -7 -14z"/>
<path d="M1180 1131 c0 -5 5 -13 10 -16 6 -3 10 -2 10 4 0 5 -4 13 -10 16 -5
3 -10 2 -10 -4z"/>
<path d="M1157 1086 c-2 -6 1 -24 8 -40 10 -23 13 -25 18 -11 9 23 9 27 -3 20
-5 -3 -10 -1 -10 4 0 6 5 11 10 11 6 0 10 6 10 13 0 16 -27 18 -33 3z"/>
<path d="M1628 802 c-9 -10 -19 -31 -23 -47 -4 -17 -9 -38 -12 -47 -3 -14 0
-16 14 -12 17 5 17 5 1 -6 -9 -6 -25 -36 -34 -68 -24 -79 -30 -82 -38 -20 -8
59 -19 84 -34 74 -5 -3 -12 0 -15 8 -3 7 -15 16 -27 19 -38 10 -45 -40 -21
-153 6 -25 17 -83 26 -130 18 -100 38 -127 81 -113 26 9 32 20 71 154 23 79
45 155 47 169 7 36 12 59 26 109 8 30 8 47 1 54 -7 7 -12 -3 -17 -31 -4 -23
-10 -42 -14 -42 -5 0 -4 16 2 36 15 57 -1 79 -34 46z"/>
<path d="M1869 786 c-2 -3 -28 -6 -57 -7 -29 -2 -60 -8 -68 -14 -18 -13 -74
-275 -74 -348 0 -41 5 -53 30 -79 28 -27 36 -30 76 -25 25 2 51 10 57 17 10
10 7 11 -13 6 -68 -18 -83 -19 -78 -6 2 7 13 14 24 16 85 12 104 16 109 25 4
5 1 9 -5 9 -6 0 -8 5 -4 12 5 8 2 9 -9 5 -10 -4 -20 0 -25 9 -7 12 -14 13 -37
4 -15 -6 -30 -9 -32 -6 -3 2 -1 25 2 50 6 38 11 46 29 46 11 0 39 9 61 20 37
19 38 20 10 16 l-30 -5 28 12 c31 13 35 24 10 30 -17 4 -17 5 0 6 9 0 17 6 17
11 0 6 -22 10 -49 10 l-49 0 8 34 c11 50 15 53 75 61 56 7 85 24 43 26 -19 1
-17 3 7 8 20 4 30 12 29 24 -1 9 3 18 10 18 14 2 -43 16 -70 18 -11 0 -23 -1
-25 -3z m-172 -428 c-3 -8 -6 -5 -6 6 -1 11 2 17 5 13 3 -3 4 -12 1 -19z m138
12 c-11 -5 -29 -8 -40 -8 -16 0 -15 2 5 8 34 11 60 11 35 0z"/>
<path d="M1133 709 c-33 -10 -59 -42 -48 -59 3 -6 18 -10 33 -10 26 -1 27 -1
7 -16 -19 -16 -19 -16 10 -10 66 15 145 19 145 7 0 -23 -29 -68 -54 -85 -34
-22 -36 -21 -29 22 6 34 5 36 -10 23 -10 -7 -17 -20 -17 -28 0 -8 -5 -11 -10
-8 -6 4 -8 11 -5 16 4 5 1 9 -4 9 -6 0 -11 8 -11 17 0 36 -20 -5 -40 -82 -26
-100 -40 -216 -29 -235 7 -13 8 -12 9 2 0 9 4 20 10 23 6 4 7 -5 4 -23 -5 -22
-2 -31 12 -36 19 -7 35 9 32 34 0 8 4 28 10 43 7 16 12 45 12 65 l1 37 19 -25
c73 -92 80 -98 126 -109 57 -14 76 -2 80 53 3 31 1 34 -31 40 -20 4 -44 19
-60 38 l-26 31 39 39 c41 40 62 94 62 162 0 51 -32 69 -128 72 -43 2 -92 -1
-109 -7z m84 -55 c-3 -3 -12 -4 -19 -1 -8 3 -5 6 6 6 11 1 17 -2 13 -5z"/>
<path d="M885 671 l-40 -6 -17 -80 c-36 -164 -50 -266 -43 -303 6 -31 9 -34
15 -17 8 18 9 17 9 -7 1 -36 36 -57 44 -27 3 12 10 18 17 14 14 -9 108 14 117
28 4 7 0 8 -11 4 -10 -4 -30 -9 -44 -12 -16 -3 -11 1 12 10 52 20 60 29 17 20
-25 -5 -32 -4 -26 5 6 10 -1 11 -29 6 l-37 -7 6 38 c10 60 11 61 59 68 25 4
51 14 57 22 11 12 8 13 -17 8 -29 -5 -29 -5 -4 7 35 17 36 18 20 28 -12 8 -11
10 5 10 14 0 16 3 8 11 -6 6 -30 9 -53 7 l-42 -4 7 40 c7 47 17 56 66 56 19 0
44 7 55 16 18 15 18 15 -5 8 -16 -4 -21 -3 -17 5 4 6 18 11 31 11 27 0 41 15
24 26 -8 4 -7 9 2 15 16 10 -122 10 -186 0z"/>
<path d="M895 225 c-38 -13 -39 -13 -10 -14 17 0 41 6 55 14 31 18 9 17 -45 0z"/>
</g>
</svg>
